<svg xmlns="http://www.w3.org/2000/svg" xmlns:xlink="http://www.w3.org/1999/xlink" width="500" zoomAndPan="magnify" viewBox="0 0 375 374.999991" height="500" preserveAspectRatio="xMidYMid meet" version="1.0"><defs><g/><clipPath id="eb302d1fee"><path d="M 201 143 L 259 143 L 259 151.355469 L 201 151.355469 Z M 201 143 " clip-rule="nonzero"/></clipPath><clipPath id="97c43c4e9d"><path d="M 189.027344 107.855469 L 270.777344 107.855469 L 270.777344 146 L 189.027344 146 Z M 189.027344 107.855469 " clip-rule="nonzero"/></clipPath></defs><g fill="#ffffff" fill-opacity="1"><g transform="translate(112.592159, 236.999984)"><g><path d="M 138.296875 -110.574219 L 131.875 -110.574219 C 124.671875 -110.574219 119.03125 -108.382812 116.371094 -104.46875 C 113.707031 -108.382812 108.382812 -110.574219 100.863281 -110.574219 L 92.5625 -110.574219 L 92.5625 -106.660156 C 107.601562 -104.3125 112.453125 -102.273438 112.453125 -93.035156 L 112.453125 -26.15625 L 46.515625 -93.816406 C 41.503906 -98.984375 35.710938 -104.78125 38.371094 -110.574219 L 30.226562 -110.574219 C 25.214844 -110.574219 22.398438 -108.382812 21.769531 -104.46875 C 18.480469 -108.382812 13.9375 -110.574219 8.300781 -110.574219 L 2.664062 -110.574219 L 2.664062 -106.660156 C 14.253906 -104.46875 18.324219 -100.707031 27.410156 -90.839844 L 27.410156 -18.953125 C 27.410156 -8.457031 23.179688 -6.265625 6.421875 -3.914062 L 6.421875 0 L 15.976562 0 C 23.179688 0 28.347656 -1.878906 31.480469 -6.109375 C 34.144531 -2.191406 39.3125 0 46.988281 0 L 56.070312 0 L 56.070312 -3.914062 C 36.648438 -6.890625 35.554688 -10.335938 35.554688 -17.699219 L 35.554688 -83.011719 L 119.347656 1.722656 L 123.261719 1.722656 L 123.261719 -2.191406 C 120.128906 -9.398438 120.128906 -16.601562 120.128906 -23.964844 L 120.128906 -91.152344 C 120.128906 -100.863281 122.792969 -104.152344 138.296875 -106.660156 Z M 138.296875 -110.574219 "/></g></g></g><path stroke-linecap="butt" transform="matrix(0.75, 0, 0, 0.75, 158.01789, 117.971227)" fill="none" stroke-linejoin="miter" d="M 62.002192 161.923792 C 64.476151 158.39775 65.564692 158.064417 71.528235 159.298792 C 78.319902 160.689417 84.580319 160.840458 92.121986 160.840458 C 121.002196 160.840458 130.377197 143.319624 130.377197 129.668581 C 130.377197 120.892539 126.700113 114.439414 117.476154 106.303996 C 106.11157 96.324829 89.345944 86.798787 83.382402 80.798786 C 80.903235 78.361286 77.98136 74.043578 77.98136 69.882119 C 77.98136 64.22066 82.595944 54.840451 95.345944 54.840451 C 104.575112 54.840451 118.861571 59.152952 125.762613 80.496703 L 129.627197 80.496703 L 129.627197 74.647744 C 129.627197 68.830036 128.840738 63.428994 123.627196 58.819618 C 127.752197 58.366493 129.627197 54.241493 129.627197 49.142534 L 129.627197 47.303993 L 125.762613 47.303993 C 123.627196 50.678993 122.538655 51.314409 116.877196 50.080034 C 112.559487 49.142534 105.325112 48.538368 96.132403 48.538368 C 76.929277 48.538368 63.538651 58.819618 63.538651 75.283161 C 63.538651 82.934203 66.163651 87.887329 74.455318 94.788371 C 82.595944 101.538371 94.746986 109.376913 105.023028 118.116497 C 111.17407 123.366498 114.252196 130.418581 114.252196 136.569623 C 114.252196 146.095666 108.095945 154.684208 94.746986 154.684208 C 81.991777 154.684208 74.455318 150.074833 62.002192 128.882123 L 58.174067 128.882123 L 58.174067 132.746707 C 58.174067 141.48629 59.564692 146.397749 64.179276 150.413374 C 60.616775 150.861291 58.174067 154.08525 58.174067 160.236292 L 58.174067 161.923792 Z M 62.002192 161.923792 " stroke="#ffffff" stroke-width="11.522475" stroke-opacity="1" stroke-miterlimit="4"/><g fill="#ffffff" fill-opacity="1"><g transform="translate(196.924138, 237.221219)"><g><path d="M 7.605469 2.1875 C 9.449219 -0.460938 10.253906 -0.691406 14.75 0.230469 C 19.816406 1.265625 24.542969 1.382812 30.1875 1.382812 C 51.851562 1.382812 58.878906 -11.753906 58.878906 -22.007812 C 58.878906 -28.574219 56.113281 -33.414062 49.199219 -39.519531 C 40.671875 -47.011719 28.113281 -54.15625 23.621094 -58.648438 C 21.777344 -60.492188 19.585938 -63.71875 19.585938 -66.828125 C 19.585938 -71.09375 23.042969 -78.121094 32.609375 -78.121094 C 39.519531 -78.121094 50.238281 -74.894531 55.421875 -58.878906 L 58.300781 -58.878906 L 58.300781 -63.257812 C 58.300781 -67.636719 57.726562 -71.667969 53.808594 -75.125 C 56.917969 -75.472656 58.300781 -78.582031 58.300781 -82.382812 L 58.300781 -83.765625 L 55.421875 -83.765625 C 53.808594 -81.230469 53.003906 -80.769531 48.738281 -81.691406 C 45.511719 -82.382812 40.097656 -82.84375 33.183594 -82.84375 C 18.78125 -82.84375 8.757812 -75.125 8.757812 -62.796875 C 8.757812 -57.035156 10.714844 -53.347656 16.9375 -48.164062 C 23.042969 -43.09375 32.148438 -37.21875 39.867188 -30.648438 C 44.476562 -26.730469 46.78125 -21.429688 46.78125 -16.824219 C 46.78125 -9.679688 42.171875 -3.226562 32.148438 -3.226562 C 22.582031 -3.226562 16.9375 -6.683594 7.605469 -22.582031 L 4.722656 -22.582031 L 4.722656 -19.703125 C 4.722656 -13.136719 5.761719 -9.449219 9.21875 -6.453125 C 6.566406 -6.105469 4.722656 -3.6875 4.722656 0.921875 L 4.722656 2.1875 Z M 7.605469 2.1875 "/></g></g></g><g clip-path="url(#eb302d1fee)"><path fill="#ffffff" d="M 229.949219 143.15625 C 229.945312 143.15625 229.945312 143.15625 229.941406 143.15625 C 229.941406 143.15625 229.9375 143.15625 229.9375 143.15625 C 229.925781 143.15625 229.917969 143.15625 229.910156 143.15625 C 215.15625 143.15625 205.007812 145.257812 201.671875 147.140625 C 205.011719 149.011719 215.148438 151.105469 229.890625 151.125 L 229.996094 151.125 C 244.734375 151.105469 254.871094 149.011719 258.214844 147.140625 C 254.875 145.257812 244.726562 143.15625 229.972656 143.15625 C 229.964844 143.15625 229.957031 143.15625 229.949219 143.15625 " fill-opacity="1" fill-rule="nonzero"/></g><g clip-path="url(#97c43c4e9d)"><path fill="#ffffff" d="M 266.761719 124.359375 C 266.023438 124.980469 266.128906 125.484375 265.925781 126.046875 C 265.8125 126.359375 265.683594 126.761719 265.132812 127.25 C 265.132812 127.25 257.988281 134.652344 253.203125 133.066406 C 246.113281 130.71875 250.003906 121.589844 250.003906 121.589844 L 250.734375 119.988281 C 251.097656 119.1875 252.183594 118.859375 252.625 118.589844 C 253.425781 118.105469 253.691406 118.269531 254.164062 117.230469 C 254.933594 115.546875 254.214844 112.574219 253.980469 111.949219 C 253.300781 112.308594 250.484375 113.867188 249.714844 115.550781 C 249.242188 116.589844 249.832031 117.195312 250.050781 117.980469 C 250.171875 118.414062 250.359375 118.972656 249.996094 119.769531 L 249.265625 121.371094 C 249.265625 121.371094 244.902344 130.144531 238.390625 130.203125 C 230.433594 130.273438 230.40625 117.320312 230.40625 117.320312 C 230.40625 116.367188 230.898438 115.835938 231.253906 115.417969 C 231.894531 114.65625 232.855469 114.203125 232.855469 112.960938 C 232.855469 111.003906 230.640625 108.574219 229.996094 107.910156 L 229.996094 107.898438 C 229.980469 107.882812 229.964844 107.867188 229.953125 107.855469 C 229.953125 107.859375 229.949219 107.859375 229.949219 107.863281 C 229.945312 107.859375 229.945312 107.859375 229.941406 107.855469 C 229.941406 107.859375 229.9375 107.859375 229.9375 107.863281 C 229.933594 107.859375 229.933594 107.859375 229.929688 107.855469 C 229.917969 107.867188 229.902344 107.882812 229.890625 107.898438 L 229.890625 107.910156 C 229.246094 108.574219 227.027344 111.003906 227.027344 112.960938 C 227.027344 114.203125 227.992188 114.65625 228.632812 115.417969 C 228.984375 115.835938 229.476562 116.367188 229.476562 117.320312 C 229.476562 117.320312 229.449219 130.273438 221.492188 130.203125 C 214.984375 130.144531 210.617188 121.371094 210.617188 121.371094 L 209.890625 119.769531 C 209.523438 118.972656 209.710938 118.414062 209.832031 117.980469 C 210.050781 117.195312 210.644531 116.589844 210.167969 115.550781 C 209.402344 113.867188 206.582031 112.308594 205.902344 111.949219 C 205.671875 112.574219 204.953125 115.546875 205.71875 117.230469 C 206.195312 118.269531 206.460938 118.105469 207.261719 118.589844 C 207.699219 118.859375 208.785156 119.1875 209.148438 119.988281 L 209.882812 121.589844 C 209.882812 121.589844 213.773438 130.71875 206.683594 133.066406 C 201.898438 134.652344 194.753906 127.25 194.753906 127.25 C 194.199219 126.761719 194.070312 126.359375 193.957031 126.046875 C 193.753906 125.484375 193.863281 124.980469 193.121094 124.359375 C 191.847656 123.285156 189.550781 122.648438 189.074219 122.535156 C 189.203125 122.992188 190.1875 125.179688 191.359375 126.207031 C 192.082031 126.839844 192.761719 126.628906 193.367188 127 C 200.152344 131.175781 200.691406 145.734375 200.691406 145.734375 L 200.75 145.734375 C 201.695312 143.511719 214.378906 141.257812 229.898438 141.257812 C 229.90625 141.257812 229.980469 141.257812 229.984375 141.257812 C 245.503906 141.257812 258.191406 143.511719 259.132812 145.734375 L 259.191406 145.734375 C 259.191406 145.734375 259.730469 131.175781 266.515625 127 C 267.125 126.628906 267.804688 126.839844 268.523438 126.207031 C 269.695312 125.179688 270.679688 122.992188 270.808594 122.535156 C 270.332031 122.648438 268.039062 123.285156 266.761719 124.359375 " fill-opacity="1" fill-rule="nonzero"/></g><g fill="#ffffff" fill-opacity="1"><g transform="translate(72.986513, 256.77643)"><g><path d="M 8.214844 0 L 10.875 0 C 10.773438 -2.726562 10.765625 -5.464844 10.839844 -8.191406 C 10.226562 -8.082031 9.578125 -8.09375 8.882812 -8.191406 C 8.992188 -5.960938 9.015625 -3.707031 8.984375 -1.460938 C 7.136719 -3.671875 5.367188 -5.914062 3.671875 -8.191406 C 2.945312 -8.082031 1.671875 -8.101562 0.945312 -8.191406 C 1.035156 -5.464844 1.035156 -2.726562 0.945312 0 L 2.925781 0 C 2.824219 -2.210938 2.792969 -4.453125 2.824219 -6.664062 C 4.695312 -4.484375 6.488281 -2.253906 8.214844 0 Z M 8.214844 0 "/></g></g></g><g fill="#ffffff" fill-opacity="1"><g transform="translate(91.249214, 256.77643)"><g><path d="M 0.945312 0 L 9.761719 0 C 9.71875 -0.550781 9.71875 -1.132812 9.761719 -1.683594 C 8.234375 -1.394531 5.046875 -1.21875 2.957031 -1.242188 C 2.914062 -2 2.914062 -2.769531 2.914062 -3.507812 C 4.957031 -3.550781 7.488281 -3.472656 8.984375 -3.386719 C 8.9375 -3.828125 8.9375 -4.320312 8.984375 -4.773438 C 7.5 -4.671875 4.957031 -4.585938 2.914062 -4.617188 C 2.902344 -5.398438 2.914062 -6.179688 2.9375 -6.960938 C 5.015625 -6.980469 8.222656 -6.804688 9.761719 -6.507812 C 9.71875 -7.058594 9.71875 -7.621094 9.761719 -8.160156 C 7.75 -8.003906 2.285156 -8.082031 0.945312 -8.191406 C 1.078125 -6.167969 1.078125 -2.089844 0.945312 0 Z M 0.945312 0 "/></g></g></g><g fill="#ffffff" fill-opacity="1"><g transform="translate(108.104909, 256.77643)"><g><path d="M 0.945312 0 L 9.761719 0 C 9.71875 -0.550781 9.71875 -1.132812 9.761719 -1.683594 C 8.234375 -1.394531 5.046875 -1.21875 2.957031 -1.242188 C 2.914062 -2 2.914062 -2.769531 2.914062 -3.507812 C 4.957031 -3.550781 7.488281 -3.472656 8.984375 -3.386719 C 8.9375 -3.828125 8.9375 -4.320312 8.984375 -4.773438 C 7.5 -4.671875 4.957031 -4.585938 2.914062 -4.617188 C 2.902344 -5.398438 2.914062 -6.179688 2.9375 -6.960938 C 5.015625 -6.980469 8.222656 -6.804688 9.761719 -6.507812 C 9.71875 -7.058594 9.71875 -7.621094 9.761719 -8.160156 C 7.75 -8.003906 2.285156 -8.082031 0.945312 -8.191406 C 1.078125 -6.167969 1.078125 -2.089844 0.945312 0 Z M 0.945312 0 "/></g></g></g><g fill="#ffffff" fill-opacity="1"><g transform="translate(124.960608, 256.77643)"><g><path d="M 0.945312 0 L 3.011719 0 C 2.945312 -0.859375 2.914062 -1.59375 2.890625 -3.089844 C 3.351562 -3.089844 3.792969 -3.078125 4.320312 -3.046875 C 6.585938 -2.878906 7.621094 -2.066406 7.992188 0 L 10.597656 0 C 10.039062 -1.210938 8.816406 -2.871094 6.640625 -3.242188 L 6.640625 -3.386719 C 7.773438 -3.386719 10.257812 -3.738281 10.257812 -5.828125 C 10.257812 -7.464844 8.816406 -8.222656 5.75 -8.222656 C 3.992188 -8.222656 2.835938 -8.160156 0.945312 -8.191406 C 1.078125 -6.144531 1.078125 -2.054688 0.945312 0 Z M 2.878906 -4.234375 C 2.878906 -5.210938 2.890625 -6.101562 2.914062 -6.949219 C 3.574219 -6.949219 4.640625 -6.980469 5.695312 -6.980469 C 7.257812 -6.980469 8.246094 -6.628906 8.246094 -5.628906 C 8.246094 -4.550781 7.234375 -4.15625 5.367188 -4.15625 C 4.519531 -4.15625 3.640625 -4.210938 2.878906 -4.234375 Z M 2.878906 -4.234375 "/></g></g></g><g fill="#ffffff" fill-opacity="1"><g transform="translate(142.42088, 256.77643)"><g><path d="M 10.71875 0 C 9.390625 -2.726562 8.136719 -5.464844 6.980469 -8.191406 C 6.191406 -8.046875 4.660156 -8.09375 3.871094 -8.191406 C 2.714844 -5.464844 1.484375 -2.726562 0.152344 0 L 2.308594 0 C 2.527344 -0.527344 2.757812 -1.121094 3.011719 -1.726562 C 4.441406 -1.757812 6.398438 -1.757812 7.816406 -1.714844 C 8.046875 -1.132812 8.257812 -0.550781 8.464844 0 Z M 3.472656 -2.847656 C 4.199219 -4.605469 4.9375 -6.34375 5.386719 -7.179688 C 6.089844 -5.882812 6.761719 -4.363281 7.367188 -2.847656 C 6.191406 -2.816406 4.652344 -2.816406 3.472656 -2.847656 Z M 3.472656 -2.847656 "/></g></g></g><g fill="#ffffff" fill-opacity="1"><g transform="translate(159.73825, 256.77643)"><g><path d="M 0.59375 -0.460938 C 1.097656 -0.0976562 1.714844 0.109375 2.5625 0.109375 C 5.046875 0.109375 5.640625 -1.386719 5.640625 -2.992188 C 5.640625 -4.519531 5.664062 -7.136719 5.726562 -8.191406 C 5.058594 -8.082031 4.375 -8.09375 3.660156 -8.191406 C 3.726562 -7.136719 3.75 -4.738281 3.75 -2.945312 C 3.75 -1.683594 2.992188 -1.308594 2.199219 -1.308594 C 1.453125 -1.308594 0.8125 -1.636719 0.59375 -1.957031 C 0.683594 -1.40625 0.683594 -0.914062 0.59375 -0.460938 Z M 0.59375 -0.460938 "/></g></g></g><g fill="#ffffff" fill-opacity="1"><g transform="translate(172.658732, 256.77643)"><g/></g></g><g fill="#ffffff" fill-opacity="1"><g transform="translate(182.40246, 256.77643)"><g><path d="M 5.992188 0.121094 C 8.972656 0.121094 10.46875 -0.660156 10.46875 -2.285156 C 10.46875 -4.058594 8.609375 -4.441406 5.785156 -4.660156 C 3.539062 -4.835938 2.660156 -5.070312 2.660156 -5.949219 C 2.660156 -6.683594 3.375 -7.027344 5.070312 -7.027344 C 7.070312 -7.027344 8.761719 -6.488281 10.039062 -5.960938 C 9.949219 -6.519531 9.949219 -7.082031 10.039062 -7.675781 C 8.488281 -8.046875 7.234375 -8.335938 5.132812 -8.335938 C 2.144531 -8.335938 0.683594 -7.53125 0.683594 -5.894531 C 0.683594 -4.234375 2.308594 -3.804688 5.003906 -3.5625 C 7.453125 -3.351562 8.488281 -3.242188 8.488281 -2.277344 C 8.488281 -1.550781 7.804688 -1.1875 6.167969 -1.1875 C 4.15625 -1.1875 1.804688 -1.660156 0.769531 -2.648438 C 0.859375 -2.035156 0.859375 -1.429688 0.769531 -0.8125 C 2.15625 -0.296875 3.980469 0.121094 5.992188 0.121094 Z M 5.992188 0.121094 "/></g></g></g><g fill="#ffffff" fill-opacity="1"><g transform="translate(199.994637, 256.77643)"><g><path d="M 10.71875 0 C 9.390625 -2.726562 8.136719 -5.464844 6.980469 -8.191406 C 6.191406 -8.046875 4.660156 -8.09375 3.871094 -8.191406 C 2.714844 -5.464844 1.484375 -2.726562 0.152344 0 L 2.308594 0 C 2.527344 -0.527344 2.757812 -1.121094 3.011719 -1.726562 C 4.441406 -1.757812 6.398438 -1.757812 7.816406 -1.714844 C 8.046875 -1.132812 8.257812 -0.550781 8.464844 0 Z M 3.472656 -2.847656 C 4.199219 -4.605469 4.9375 -6.34375 5.386719 -7.179688 C 6.089844 -5.882812 6.761719 -4.363281 7.367188 -2.847656 C 6.191406 -2.816406 4.652344 -2.816406 3.472656 -2.847656 Z M 3.472656 -2.847656 "/></g></g></g><g fill="#ffffff" fill-opacity="1"><g transform="translate(217.312007, 256.77643)"><g><path d="M 8.214844 0 L 10.875 0 C 10.773438 -2.726562 10.765625 -5.464844 10.839844 -8.191406 C 10.226562 -8.082031 9.578125 -8.09375 8.882812 -8.191406 C 8.992188 -5.960938 9.015625 -3.707031 8.984375 -1.460938 C 7.136719 -3.671875 5.367188 -5.914062 3.671875 -8.191406 C 2.945312 -8.082031 1.671875 -8.101562 0.945312 -8.191406 C 1.035156 -5.464844 1.035156 -2.726562 0.945312 0 L 2.925781 0 C 2.824219 -2.210938 2.792969 -4.453125 2.824219 -6.664062 C 4.695312 -4.484375 6.488281 -2.253906 8.214844 0 Z M 8.214844 0 "/></g></g></g><g fill="#ffffff" fill-opacity="1"><g transform="translate(235.574705, 256.77643)"><g><path d="M 6.113281 0.152344 C 8.421875 0.152344 10.609375 -0.703125 11.421875 -2.429688 C 11.347656 -3.101562 11.347656 -3.914062 11.421875 -4.464844 C 9.511719 -4.375 7.246094 -4.375 5.246094 -4.464844 C 5.332031 -3.945312 5.355469 -3.320312 5.277344 -2.890625 C 6.265625 -3 8.09375 -3.078125 9.863281 -3.078125 C 9.058594 -1.527344 7.378906 -1.164062 6.113281 -1.164062 C 3.78125 -1.164062 2.417969 -2.363281 2.417969 -4.144531 C 2.417969 -5.925781 3.847656 -7.046875 6.289062 -7.046875 C 8.015625 -7.046875 9.875 -6.5625 11.3125 -5.695312 C 11.226562 -6.144531 11.226562 -6.738281 11.3125 -7.453125 C 9.542969 -8.179688 7.597656 -8.378906 6.265625 -8.378906 C 2.683594 -8.378906 0.503906 -6.914062 0.503906 -4.144531 C 0.503906 -1.515625 2.472656 0.152344 6.113281 0.152344 Z M 6.113281 0.152344 "/></g></g></g><g fill="#ffffff" fill-opacity="1"><g transform="translate(254.024274, 256.77643)"><g><path d="M 12.25 -8.191406 C 11.777344 -6.300781 11.125 -3.816406 10.3125 -0.933594 C 9.675781 -3.253906 9.070312 -5.859375 8.621094 -8.191406 C 7.695312 -8.101562 6.792969 -8.101562 5.871094 -8.191406 C 5.453125 -5.839844 4.871094 -3.410156 4.1875 -0.914062 C 3.453125 -3.441406 2.792969 -5.949219 2.230469 -8.191406 C 1.539062 -8.101562 0.847656 -8.101562 0.152344 -8.191406 C 1 -6.070312 1.925781 -2.804688 2.738281 0 L 5.671875 0 C 6.070312 -1.96875 6.652344 -4.835938 7.246094 -6.859375 C 7.871094 -4.828125 8.457031 -1.933594 8.839844 0 L 11.6875 0 C 12.578125 -3.011719 13.5 -6.277344 14.28125 -8.191406 C 13.601562 -8.101562 12.917969 -8.101562 12.25 -8.191406 Z M 12.25 -8.191406 "/></g></g></g><g fill="#ffffff" fill-opacity="1"><g transform="translate(274.903125, 256.77643)"><g><path d="M 10.71875 0 C 9.390625 -2.726562 8.136719 -5.464844 6.980469 -8.191406 C 6.191406 -8.046875 4.660156 -8.09375 3.871094 -8.191406 C 2.714844 -5.464844 1.484375 -2.726562 0.152344 0 L 2.308594 0 C 2.527344 -0.527344 2.757812 -1.121094 3.011719 -1.726562 C 4.441406 -1.757812 6.398438 -1.757812 7.816406 -1.714844 C 8.046875 -1.132812 8.257812 -0.550781 8.464844 0 Z M 3.472656 -2.847656 C 4.199219 -4.605469 4.9375 -6.34375 5.386719 -7.179688 C 6.089844 -5.882812 6.761719 -4.363281 7.367188 -2.847656 C 6.191406 -2.816406 4.652344 -2.816406 3.472656 -2.847656 Z M 3.472656 -2.847656 "/></g></g></g><g fill="#ffffff" fill-opacity="1"><g transform="translate(292.220507, 256.77643)"><g><path d="M 8.214844 0 L 10.875 0 C 10.773438 -2.726562 10.765625 -5.464844 10.839844 -8.191406 C 10.226562 -8.082031 9.578125 -8.09375 8.882812 -8.191406 C 8.992188 -5.960938 9.015625 -3.707031 8.984375 -1.460938 C 7.136719 -3.671875 5.367188 -5.914062 3.671875 -8.191406 C 2.945312 -8.082031 1.671875 -8.101562 0.945312 -8.191406 C 1.035156 -5.464844 1.035156 -2.726562 0.945312 0 L 2.925781 0 C 2.824219 -2.210938 2.792969 -4.453125 2.824219 -6.664062 C 4.695312 -4.484375 6.488281 -2.253906 8.214844 0 Z M 8.214844 0 "/></g></g></g><g fill="#ffffff" fill-opacity="1"><g transform="translate(147.769698, 270.562629)"><g><path d="M 2.8125 0.09375 C 2.40625 0.09375 2.039062 0.0390625 1.71875 -0.0625 C 1.394531 -0.175781 1.125 -0.320312 0.90625 -0.5 C 0.695312 -0.6875 0.539062 -0.882812 0.4375 -1.09375 L 0.859375 -1.59375 L 0.96875 -1.59375 C 1.363281 -0.925781 1.976562 -0.59375 2.8125 -0.59375 C 3.289062 -0.59375 3.644531 -0.691406 3.875 -0.890625 C 4.113281 -1.097656 4.234375 -1.378906 4.234375 -1.734375 C 4.234375 -1.941406 4.195312 -2.117188 4.125 -2.265625 C 4.050781 -2.410156 3.921875 -2.535156 3.734375 -2.640625 C 3.554688 -2.742188 3.316406 -2.835938 3.015625 -2.921875 L 2.265625 -3.109375 C 1.703125 -3.242188 1.285156 -3.457031 1.015625 -3.75 C 0.753906 -4.039062 0.625 -4.410156 0.625 -4.859375 C 0.625 -5.179688 0.703125 -5.46875 0.859375 -5.71875 C 1.023438 -5.96875 1.265625 -6.160156 1.578125 -6.296875 C 1.898438 -6.441406 2.28125 -6.515625 2.71875 -6.515625 C 3.207031 -6.515625 3.617188 -6.445312 3.953125 -6.3125 C 4.285156 -6.175781 4.550781 -5.972656 4.75 -5.703125 L 4.375 -5.203125 L 4.265625 -5.203125 C 4.078125 -5.429688 3.859375 -5.597656 3.609375 -5.703125 C 3.359375 -5.804688 3.0625 -5.859375 2.71875 -5.859375 C 2.28125 -5.859375 1.945312 -5.769531 1.71875 -5.59375 C 1.488281 -5.425781 1.375 -5.1875 1.375 -4.875 C 1.375 -4.59375 1.457031 -4.363281 1.625 -4.1875 C 1.789062 -4.019531 2.070312 -3.890625 2.46875 -3.796875 L 3.234375 -3.609375 C 3.859375 -3.460938 4.3125 -3.238281 4.59375 -2.9375 C 4.875 -2.632812 5.015625 -2.242188 5.015625 -1.765625 C 5.015625 -1.398438 4.929688 -1.078125 4.765625 -0.796875 C 4.609375 -0.523438 4.363281 -0.304688 4.03125 -0.140625 C 3.695312 0.015625 3.289062 0.09375 2.8125 0.09375 Z M 2.8125 0.09375 "/></g></g><g transform="translate(153.276045, 270.562629)"><g><path d="M 2.78125 0.09375 C 2.320312 0.09375 1.921875 0 1.578125 -0.1875 C 1.242188 -0.382812 0.984375 -0.671875 0.796875 -1.046875 C 0.617188 -1.429688 0.53125 -1.890625 0.53125 -2.421875 C 0.53125 -2.953125 0.617188 -3.40625 0.796875 -3.78125 C 0.984375 -4.164062 1.242188 -4.453125 1.578125 -4.640625 C 1.921875 -4.835938 2.320312 -4.9375 2.78125 -4.9375 C 3.238281 -4.9375 3.632812 -4.835938 3.96875 -4.640625 C 4.3125 -4.453125 4.570312 -4.164062 4.75 -3.78125 C 4.9375 -3.40625 5.03125 -2.953125 5.03125 -2.421875 C 5.03125 -1.890625 4.9375 -1.429688 4.75 -1.046875 C 4.570312 -0.671875 4.3125 -0.382812 3.96875 -0.1875 C 3.632812 0 3.238281 0.09375 2.78125 0.09375 Z M 2.78125 -0.546875 C 3.257812 -0.546875 3.628906 -0.695312 3.890625 -1 C 4.148438 -1.3125 4.28125 -1.785156 4.28125 -2.421875 C 4.28125 -3.066406 4.148438 -3.539062 3.890625 -3.84375 C 3.628906 -4.144531 3.257812 -4.296875 2.78125 -4.296875 C 2.300781 -4.296875 1.929688 -4.140625 1.671875 -3.828125 C 1.410156 -3.523438 1.28125 -3.054688 1.28125 -2.421875 C 1.28125 -1.785156 1.410156 -1.3125 1.671875 -1 C 1.929688 -0.695312 2.300781 -0.546875 2.78125 -0.546875 Z M 2.78125 -0.546875 "/></g></g><g transform="translate(158.839521, 270.562629)"><g><path d="M 1.078125 0 L 1.078125 -4.265625 L 0.234375 -4.265625 L 0.234375 -4.859375 L 1.078125 -4.859375 C 1.023438 -5.066406 1 -5.265625 1 -5.453125 C 1 -5.765625 1.066406 -6.023438 1.203125 -6.234375 C 1.335938 -6.453125 1.519531 -6.613281 1.75 -6.71875 C 1.988281 -6.832031 2.265625 -6.890625 2.578125 -6.890625 C 3.066406 -6.890625 3.4375 -6.785156 3.6875 -6.578125 L 3.421875 -6.0625 L 3.328125 -6.046875 C 3.128906 -6.203125 2.878906 -6.28125 2.578125 -6.28125 C 2.296875 -6.28125 2.082031 -6.207031 1.9375 -6.0625 C 1.789062 -5.914062 1.71875 -5.707031 1.71875 -5.4375 C 1.71875 -5.269531 1.742188 -5.078125 1.796875 -4.859375 L 3.34375 -4.859375 L 3.34375 -4.265625 L 1.796875 -4.265625 L 1.796875 0 Z M 1.078125 0 "/></g></g><g transform="translate(162.293623, 270.562629)"><g><path d="M 3.28125 -0.765625 L 3.5 -0.25 C 3.382812 -0.132812 3.234375 -0.0507812 3.046875 0 C 2.867188 0.0625 2.671875 0.09375 2.453125 0.09375 C 1.523438 0.09375 1.0625 -0.375 1.0625 -1.3125 L 1.0625 -4.265625 L 0.21875 -4.265625 L 0.21875 -4.859375 L 1.0625 -4.859375 L 1.0625 -5.875 L 1.78125 -6 L 1.78125 -4.859375 L 3.34375 -4.859375 L 3.34375 -4.265625 L 1.78125 -4.265625 L 1.78125 -1.390625 C 1.78125 -0.828125 2.019531 -0.546875 2.5 -0.546875 C 2.769531 -0.546875 3 -0.617188 3.1875 -0.765625 Z M 3.28125 -0.765625 "/></g></g><g transform="translate(165.985029, 270.562629)"><g><path d="M 2.40625 0 L 1.5 0 L 0.3125 -4.84375 L 1.015625 -4.84375 L 1.9375 -0.828125 L 2.03125 -0.828125 L 3.15625 -4.84375 L 3.90625 -4.84375 L 5.078125 -0.828125 L 5.171875 -0.828125 L 6.0625 -4.84375 L 6.75 -4.84375 L 5.578125 0 L 4.671875 0 L 3.5625 -3.765625 L 3.46875 -3.765625 Z M 2.40625 0 "/></g></g><g transform="translate(173.051435, 270.562629)"><g><path d="M 2 0.09375 C 1.519531 0.09375 1.144531 -0.03125 0.875 -0.28125 C 0.613281 -0.53125 0.484375 -0.882812 0.484375 -1.34375 C 0.484375 -1.632812 0.539062 -1.878906 0.65625 -2.078125 C 0.769531 -2.273438 0.953125 -2.4375 1.203125 -2.5625 C 1.453125 -2.6875 1.78125 -2.78125 2.1875 -2.84375 C 2.539062 -2.90625 2.804688 -2.972656 2.984375 -3.046875 C 3.171875 -3.117188 3.296875 -3.195312 3.359375 -3.28125 C 3.421875 -3.375 3.453125 -3.492188 3.453125 -3.640625 C 3.453125 -3.859375 3.375 -4.023438 3.21875 -4.140625 C 3.070312 -4.253906 2.832031 -4.3125 2.5 -4.3125 C 2.1875 -4.3125 1.914062 -4.25 1.6875 -4.125 C 1.46875 -4.007812 1.265625 -3.832031 1.078125 -3.59375 L 0.984375 -3.59375 L 0.640625 -4.09375 C 0.835938 -4.351562 1.09375 -4.554688 1.40625 -4.703125 C 1.726562 -4.859375 2.09375 -4.9375 2.5 -4.9375 C 3.070312 -4.9375 3.492188 -4.8125 3.765625 -4.5625 C 4.035156 -4.3125 4.171875 -3.96875 4.171875 -3.53125 L 4.171875 -0.953125 C 4.171875 -0.679688 4.285156 -0.546875 4.515625 -0.546875 C 4.585938 -0.546875 4.660156 -0.5625 4.734375 -0.59375 L 4.796875 -0.578125 L 4.875 -0.078125 C 4.820312 -0.0351562 4.75 -0.0078125 4.65625 0 C 4.570312 0.0195312 4.488281 0.03125 4.40625 0.03125 C 4.132812 0.03125 3.929688 -0.0234375 3.796875 -0.140625 C 3.660156 -0.253906 3.570312 -0.425781 3.53125 -0.65625 L 3.4375 -0.671875 C 3.300781 -0.410156 3.113281 -0.21875 2.875 -0.09375 C 2.644531 0.03125 2.351562 0.09375 2 0.09375 Z M 2.15625 -0.484375 C 2.425781 -0.484375 2.660156 -0.546875 2.859375 -0.671875 C 3.054688 -0.796875 3.207031 -0.96875 3.3125 -1.1875 C 3.414062 -1.414062 3.46875 -1.675781 3.46875 -1.96875 L 3.46875 -2.59375 L 3.390625 -2.609375 C 3.273438 -2.523438 3.140625 -2.457031 2.984375 -2.40625 C 2.835938 -2.363281 2.625 -2.320312 2.34375 -2.28125 C 2.0625 -2.238281 1.835938 -2.175781 1.671875 -2.09375 C 1.503906 -2.019531 1.382812 -1.921875 1.3125 -1.796875 C 1.25 -1.679688 1.21875 -1.53125 1.21875 -1.34375 C 1.21875 -1.0625 1.300781 -0.847656 1.46875 -0.703125 C 1.632812 -0.554688 1.863281 -0.484375 2.15625 -0.484375 Z M 2.15625 -0.484375 "/></g></g><g transform="translate(178.065594, 270.562629)"><g><path d="M 0.84375 0 L 0.84375 -4.84375 L 1.53125 -4.84375 L 1.53125 -4.09375 L 1.625 -4.0625 C 1.84375 -4.613281 2.265625 -4.890625 2.890625 -4.890625 C 3.222656 -4.890625 3.472656 -4.832031 3.640625 -4.71875 L 3.453125 -4.109375 L 3.359375 -4.09375 C 3.179688 -4.175781 2.984375 -4.21875 2.765625 -4.21875 C 2.378906 -4.21875 2.082031 -4.070312 1.875 -3.78125 C 1.664062 -3.5 1.5625 -3.03125 1.5625 -2.375 L 1.5625 0 Z M 0.84375 0 "/></g></g><g transform="translate(181.809735, 270.562629)"><g><path d="M 4.625 -2.265625 L 1.28125 -2.265625 C 1.300781 -1.671875 1.441406 -1.234375 1.703125 -0.953125 C 1.972656 -0.679688 2.335938 -0.546875 2.796875 -0.546875 C 3.140625 -0.546875 3.414062 -0.609375 3.625 -0.734375 C 3.832031 -0.859375 4 -1.050781 4.125 -1.3125 L 4.21875 -1.3125 L 4.6875 -1.03125 C 4.539062 -0.6875 4.3125 -0.410156 4 -0.203125 C 3.695312 -0.00390625 3.296875 0.09375 2.796875 0.09375 C 2.328125 0.09375 1.921875 0 1.578125 -0.1875 C 1.242188 -0.375 0.984375 -0.65625 0.796875 -1.03125 C 0.617188 -1.40625 0.53125 -1.867188 0.53125 -2.421875 C 0.53125 -2.972656 0.625 -3.4375 0.8125 -3.8125 C 1.007812 -4.1875 1.273438 -4.46875 1.609375 -4.65625 C 1.941406 -4.84375 2.320312 -4.9375 2.75 -4.9375 C 3.363281 -4.9375 3.84375 -4.757812 4.1875 -4.40625 C 4.539062 -4.0625 4.722656 -3.546875 4.734375 -2.859375 C 4.734375 -2.585938 4.726562 -2.40625 4.71875 -2.3125 Z M 4.015625 -2.859375 C 4.003906 -3.367188 3.890625 -3.738281 3.671875 -3.96875 C 3.460938 -4.207031 3.15625 -4.328125 2.75 -4.328125 C 2.320312 -4.328125 1.988281 -4.207031 1.75 -3.96875 C 1.507812 -3.738281 1.363281 -3.367188 1.3125 -2.859375 Z M 4.015625 -2.859375 "/></g></g><g transform="translate(186.977703, 270.562629)"><g/></g><g transform="translate(189.183758, 270.562629)"><g><path d="M 1.734375 -3.03125 L 1.734375 -0.625 L 5 -0.625 L 5 0 L 0.96875 0 L 0.96875 -6.421875 L 4.9375 -6.421875 L 4.9375 -5.796875 L 1.734375 -5.796875 L 1.734375 -3.65625 L 4.546875 -3.65625 L 4.546875 -3.03125 Z M 1.734375 -3.03125 "/></g></g><g transform="translate(194.611003, 270.562629)"><g><path d="M 0.84375 0 L 0.84375 -4.84375 L 1.53125 -4.84375 L 1.53125 -4.09375 L 1.625 -4.0625 C 1.78125 -4.34375 1.984375 -4.554688 2.234375 -4.703125 C 2.484375 -4.859375 2.789062 -4.9375 3.15625 -4.9375 C 3.738281 -4.9375 4.160156 -4.785156 4.421875 -4.484375 C 4.679688 -4.191406 4.8125 -3.738281 4.8125 -3.125 L 4.8125 0 L 4.09375 0 L 4.09375 -3.109375 C 4.09375 -3.398438 4.054688 -3.632812 3.984375 -3.8125 C 3.910156 -3.988281 3.796875 -4.113281 3.640625 -4.1875 C 3.484375 -4.269531 3.273438 -4.3125 3.015625 -4.3125 C 2.578125 -4.3125 2.222656 -4.164062 1.953125 -3.875 C 1.691406 -3.59375 1.5625 -3.128906 1.5625 -2.484375 L 1.5625 0 Z M 0.84375 0 "/></g></g><g transform="translate(200.192058, 270.562629)"><g><path d="M 2.5 2.0625 C 1.726562 2.0625 1.164062 1.929688 0.8125 1.671875 C 0.46875 1.421875 0.296875 1.082031 0.296875 0.65625 C 0.296875 0.382812 0.375 0.164062 0.53125 0 C 0.695312 -0.15625 0.9375 -0.269531 1.25 -0.34375 L 1.25 -0.4375 C 1.101562 -0.519531 0.992188 -0.617188 0.921875 -0.734375 C 0.847656 -0.847656 0.8125 -0.984375 0.8125 -1.140625 C 0.8125 -1.328125 0.867188 -1.476562 0.984375 -1.59375 C 1.109375 -1.707031 1.285156 -1.796875 1.515625 -1.859375 L 1.515625 -1.953125 C 0.984375 -2.234375 0.71875 -2.6875 0.71875 -3.3125 C 0.71875 -3.625 0.789062 -3.90625 0.9375 -4.15625 C 1.082031 -4.40625 1.285156 -4.597656 1.546875 -4.734375 C 1.816406 -4.867188 2.128906 -4.9375 2.484375 -4.9375 C 2.890625 -4.9375 3.226562 -4.847656 3.5 -4.671875 C 3.601562 -4.785156 3.679688 -4.90625 3.734375 -5.03125 C 3.785156 -5.164062 3.820312 -5.316406 3.84375 -5.484375 L 3.921875 -5.53125 L 4.515625 -5.390625 C 4.484375 -5.148438 4.410156 -4.941406 4.296875 -4.765625 C 4.179688 -4.597656 4.015625 -4.457031 3.796875 -4.34375 L 3.796875 -4.265625 C 3.953125 -4.140625 4.066406 -3.992188 4.140625 -3.828125 C 4.210938 -3.660156 4.25 -3.46875 4.25 -3.25 C 4.25 -2.945312 4.175781 -2.671875 4.03125 -2.421875 C 3.882812 -2.179688 3.675781 -1.988281 3.40625 -1.84375 C 3.144531 -1.707031 2.835938 -1.640625 2.484375 -1.640625 C 2.441406 -1.640625 2.367188 -1.644531 2.265625 -1.65625 C 2.148438 -1.65625 2.066406 -1.65625 2.015625 -1.65625 C 1.859375 -1.65625 1.734375 -1.613281 1.640625 -1.53125 C 1.546875 -1.457031 1.5 -1.359375 1.5 -1.234375 C 1.5 -1.085938 1.546875 -0.976562 1.640625 -0.90625 C 1.742188 -0.832031 1.910156 -0.789062 2.140625 -0.78125 L 3.28125 -0.75 C 3.78125 -0.726562 4.148438 -0.609375 4.390625 -0.390625 C 4.628906 -0.179688 4.75 0.113281 4.75 0.5 C 4.75 0.789062 4.671875 1.050781 4.515625 1.28125 C 4.359375 1.519531 4.109375 1.707031 3.765625 1.84375 C 3.429688 1.988281 3.007812 2.0625 2.5 2.0625 Z M 2.484375 -2.265625 C 2.828125 -2.265625 3.09375 -2.351562 3.28125 -2.53125 C 3.46875 -2.707031 3.5625 -2.957031 3.5625 -3.28125 C 3.5625 -3.613281 3.46875 -3.867188 3.28125 -4.046875 C 3.09375 -4.234375 2.828125 -4.328125 2.484375 -4.328125 C 2.140625 -4.328125 1.875 -4.234375 1.6875 -4.046875 C 1.507812 -3.867188 1.421875 -3.613281 1.421875 -3.28125 C 1.421875 -2.957031 1.507812 -2.707031 1.6875 -2.53125 C 1.875 -2.351562 2.140625 -2.265625 2.484375 -2.265625 Z M 2.5 1.4375 C 2.851562 1.4375 3.144531 1.394531 3.375 1.3125 C 3.601562 1.238281 3.765625 1.132812 3.859375 1 C 3.960938 0.875 4.015625 0.734375 4.015625 0.578125 C 4.015625 0.429688 3.984375 0.3125 3.921875 0.21875 C 3.867188 0.132812 3.78125 0.0664062 3.65625 0.015625 C 3.539062 -0.0234375 3.378906 -0.0507812 3.171875 -0.0625 L 2.09375 -0.109375 L 1.9375 -0.109375 C 1.332031 -0.0976562 1.03125 0.132812 1.03125 0.59375 C 1.03125 1.15625 1.519531 1.4375 2.5 1.4375 Z M 2.5 1.4375 "/></g></g><g transform="translate(205.157878, 270.562629)"><g><path d="M 1.203125 -5.78125 C 1.046875 -5.78125 0.921875 -5.828125 0.828125 -5.921875 C 0.734375 -6.015625 0.6875 -6.132812 0.6875 -6.28125 C 0.6875 -6.4375 0.734375 -6.5625 0.828125 -6.65625 C 0.921875 -6.75 1.046875 -6.796875 1.203125 -6.796875 C 1.359375 -6.796875 1.484375 -6.75 1.578125 -6.65625 C 1.671875 -6.5625 1.71875 -6.4375 1.71875 -6.28125 C 1.71875 -6.132812 1.671875 -6.015625 1.578125 -5.921875 C 1.484375 -5.828125 1.359375 -5.78125 1.203125 -5.78125 Z M 0.84375 0 L 0.84375 -4.84375 L 1.5625 -4.84375 L 1.5625 0 Z M 0.84375 0 "/></g></g><g transform="translate(207.561686, 270.562629)"><g><path d="M 0.84375 0 L 0.84375 -4.84375 L 1.53125 -4.84375 L 1.53125 -4.09375 L 1.625 -4.0625 C 1.78125 -4.34375 1.984375 -4.554688 2.234375 -4.703125 C 2.484375 -4.859375 2.789062 -4.9375 3.15625 -4.9375 C 3.738281 -4.9375 4.160156 -4.785156 4.421875 -4.484375 C 4.679688 -4.191406 4.8125 -3.738281 4.8125 -3.125 L 4.8125 0 L 4.09375 0 L 4.09375 -3.109375 C 4.09375 -3.398438 4.054688 -3.632812 3.984375 -3.8125 C 3.910156 -3.988281 3.796875 -4.113281 3.640625 -4.1875 C 3.484375 -4.269531 3.273438 -4.3125 3.015625 -4.3125 C 2.578125 -4.3125 2.222656 -4.164062 1.953125 -3.875 C 1.691406 -3.59375 1.5625 -3.128906 1.5625 -2.484375 L 1.5625 0 Z M 0.84375 0 "/></g></g><g transform="translate(213.142741, 270.562629)"><g><path d="M 4.625 -2.265625 L 1.28125 -2.265625 C 1.300781 -1.671875 1.441406 -1.234375 1.703125 -0.953125 C 1.972656 -0.679688 2.335938 -0.546875 2.796875 -0.546875 C 3.140625 -0.546875 3.414062 -0.609375 3.625 -0.734375 C 3.832031 -0.859375 4 -1.050781 4.125 -1.3125 L 4.21875 -1.3125 L 4.6875 -1.03125 C 4.539062 -0.6875 4.3125 -0.410156 4 -0.203125 C 3.695312 -0.00390625 3.296875 0.09375 2.796875 0.09375 C 2.328125 0.09375 1.921875 0 1.578125 -0.1875 C 1.242188 -0.375 0.984375 -0.65625 0.796875 -1.03125 C 0.617188 -1.40625 0.53125 -1.867188 0.53125 -2.421875 C 0.53125 -2.972656 0.625 -3.4375 0.8125 -3.8125 C 1.007812 -4.1875 1.273438 -4.46875 1.609375 -4.65625 C 1.941406 -4.84375 2.320312 -4.9375 2.75 -4.9375 C 3.363281 -4.9375 3.84375 -4.757812 4.1875 -4.40625 C 4.539062 -4.0625 4.722656 -3.546875 4.734375 -2.859375 C 4.734375 -2.585938 4.726562 -2.40625 4.71875 -2.3125 Z M 4.015625 -2.859375 C 4.003906 -3.367188 3.890625 -3.738281 3.671875 -3.96875 C 3.460938 -4.207031 3.15625 -4.328125 2.75 -4.328125 C 2.320312 -4.328125 1.988281 -4.207031 1.75 -3.96875 C 1.507812 -3.738281 1.363281 -3.367188 1.3125 -2.859375 Z M 4.015625 -2.859375 "/></g></g><g transform="translate(218.310709, 270.562629)"><g><path d="M 4.625 -2.265625 L 1.28125 -2.265625 C 1.300781 -1.671875 1.441406 -1.234375 1.703125 -0.953125 C 1.972656 -0.679688 2.335938 -0.546875 2.796875 -0.546875 C 3.140625 -0.546875 3.414062 -0.609375 3.625 -0.734375 C 3.832031 -0.859375 4 -1.050781 4.125 -1.3125 L 4.21875 -1.3125 L 4.6875 -1.03125 C 4.539062 -0.6875 4.3125 -0.410156 4 -0.203125 C 3.695312 -0.00390625 3.296875 0.09375 2.796875 0.09375 C 2.328125 0.09375 1.921875 0 1.578125 -0.1875 C 1.242188 -0.375 0.984375 -0.65625 0.796875 -1.03125 C 0.617188 -1.40625 0.53125 -1.867188 0.53125 -2.421875 C 0.53125 -2.972656 0.625 -3.4375 0.8125 -3.8125 C 1.007812 -4.1875 1.273438 -4.46875 1.609375 -4.65625 C 1.941406 -4.84375 2.320312 -4.9375 2.75 -4.9375 C 3.363281 -4.9375 3.84375 -4.757812 4.1875 -4.40625 C 4.539062 -4.0625 4.722656 -3.546875 4.734375 -2.859375 C 4.734375 -2.585938 4.726562 -2.40625 4.71875 -2.3125 Z M 4.015625 -2.859375 C 4.003906 -3.367188 3.890625 -3.738281 3.671875 -3.96875 C 3.460938 -4.207031 3.15625 -4.328125 2.75 -4.328125 C 2.320312 -4.328125 1.988281 -4.207031 1.75 -3.96875 C 1.507812 -3.738281 1.363281 -3.367188 1.3125 -2.859375 Z M 4.015625 -2.859375 "/></g></g><g transform="translate(223.478677, 270.562629)"><g><path d="M 0.84375 0 L 0.84375 -4.84375 L 1.53125 -4.84375 L 1.53125 -4.09375 L 1.625 -4.0625 C 1.84375 -4.613281 2.265625 -4.890625 2.890625 -4.890625 C 3.222656 -4.890625 3.472656 -4.832031 3.640625 -4.71875 L 3.453125 -4.109375 L 3.359375 -4.09375 C 3.179688 -4.175781 2.984375 -4.21875 2.765625 -4.21875 C 2.378906 -4.21875 2.082031 -4.070312 1.875 -3.78125 C 1.664062 -3.5 1.5625 -3.03125 1.5625 -2.375 L 1.5625 0 Z M 0.84375 0 "/></g></g></g></svg>